<?xml version="1.0" encoding="UTF-8" standalone="no"?>
<!DOCTYPE svg PUBLIC "-//W3C//DTD SVG 1.1//EN" "http://www.w3.org/Graphics/SVG/1.1/DTD/svg11.dtd">
<svg width="100%" height="100%" viewBox="0 0 1000 1000" version="1.1" xmlns="http://www.w3.org/2000/svg" xmlns:xlink="http://www.w3.org/1999/xlink" xml:space="preserve" xmlns:serif="http://www.serif.com/" style="fill-rule:evenodd;clip-rule:evenodd;stroke-linejoin:round;stroke-miterlimit:2;">
    <g id="Layer2">
    </g>
    <g id="Layer3">
    </g>
    <g id="Layer4" transform="matrix(1.139723,0,0,1.139723,-55.577385,-58.266558)">
        <path d="M335,210.918L335,459.082C335,467.124 328.471,473.653 320.429,473.653L204.571,473.653C196.529,473.653 190,467.124 190,459.082L190,210.918C190,202.876 196.529,196.347 204.571,196.347L320.429,196.347C328.471,196.347 335,202.876 335,210.918ZM335,514.571L335,762.734C335,770.776 328.471,777.305 320.429,777.305L204.571,777.305C196.529,777.305 190,770.776 190,762.734L190,514.571C190,506.529 196.529,500 204.571,500L320.429,500C328.471,500 335,506.529 335,514.571ZM482,209.11L482,310.585C482,317.629 476.281,323.347 469.238,323.347L367.762,323.347C360.719,323.347 355,317.629 355,310.585L355,209.11C355,202.066 360.719,196.347 367.762,196.347L469.238,196.347C476.281,196.347 482,202.066 482,209.11ZM629,359.303L629,460.778C629,467.822 623.281,473.54 616.238,473.54L514.762,473.54C507.719,473.54 502,467.822 502,460.778L502,359.303C502,352.259 507.719,346.54 514.762,346.54L616.238,346.54C623.281,346.54 629,352.259 629,359.303ZM778.934,359.303L778.934,460.778C778.934,467.822 773.215,473.54 766.171,473.54L664.696,473.54C657.652,473.54 651.934,467.822 651.934,460.778L651.934,359.303C651.934,352.259 657.652,346.54 664.696,346.54L766.171,346.54C773.215,346.54 778.934,352.259 778.934,359.303ZM778.934,512.762L778.934,614.238C778.934,621.281 773.215,627 766.171,627L664.696,627C657.652,627 651.934,621.281 651.934,614.238L651.934,512.762C651.934,505.719 657.652,500 664.696,500L766.171,500C773.215,500 778.934,505.719 778.934,512.762ZM629,659.742L629,761.217C629,768.261 623.281,773.979 616.238,773.979L514.762,773.979C507.719,773.979 502,768.261 502,761.217L502,659.742C502,652.698 507.719,646.979 514.762,646.979L616.238,646.979C623.281,646.979 629,652.698 629,659.742ZM629,512.762L629,614.238C629,621.281 623.281,627 616.238,627L514.762,627C507.719,627 502,621.281 502,614.238L502,512.762C502,505.719 507.719,500 514.762,500L616.238,500C623.281,500 629,505.719 629,512.762ZM482,512.762L482,614.238C482,621.281 476.281,627 469.238,627L367.762,627C360.719,627 355,621.281 355,614.238L355,512.762C355,505.719 360.719,500 367.762,500L469.238,500C476.281,500 482,505.719 482,512.762Z" style="fill:white;"/>
    </g>
    <g id="Layer5" transform="matrix(1.139723,0,0,1.139723,-73.280856,-73.280856)">
        <g id="Layer41" serif:id="Layer4" transform="matrix(1,0,0,1,15.533129,13.173633)">
            <path d="M405.918,473.54L367.762,473.54C360.719,473.54 355,467.822 355,460.778L355,359.303C355,352.259 360.719,346.54 367.762,346.54L469.238,346.54C476.281,346.54 482,352.259 482,359.303L482,395.59L418.5,395.59C411.456,395.59 405.738,401.309 405.738,408.353L405.918,473.54Z" style="fill:white;"/>
        </g>
        <g id="Layer42" serif:id="Layer4" transform="matrix(-1,0,0,-1,903.450831,882.304457)">
            <path d="M405.918,473.54L482,395.59L469.418,449.211C469.418,456.255 463.699,461.974 456.655,461.974L405.918,473.54Z" style="fill:white;"/>
        </g>
    </g>
    <g id="Layer51" serif:id="Layer5">
    </g>
</svg>
